HIERARCHY
ROOT SpineBase
{
  OFFSET 0.000000 0.000000 0.000000
  CHANNELS 6 Xposition Yposition Zposition Zrotation Xrotation Yrotation
  JOINT SpineMid
  {
    OFFSET -0.000000 31.323678 0.000000
    CHANNELS 3 Zrotation Xrotation Yrotation
    JOINT SpineShoulder
    {
      OFFSET -0.253506 23.360078 -0.591610
      CHANNELS 3 Zrotation Xrotation Yrotation
      JOINT Neck
      {
        OFFSET -0.177681 7.720792 -0.520276
        CHANNELS 3 Zrotation Xrotation Yrotation
        JOINT Head
        {
          OFFSET -3.244619 11.033295 2.211079
          CHANNELS 3 Zrotation Xrotation Yrotation
          End Site
          {
            OFFSET 0 0 0
          }
        }
      }
      JOINT ShoulderLeft
      {
        OFFSET -10.518629 -3.661772 20.711490
        CHANNELS 3 Zrotation Xrotation Yrotation
        JOINT ElbowLeft
        {
          OFFSET 3.822277 -10.113338 -20.123378
          CHANNELS 3 Zrotation Xrotation Yrotation
          JOINT WristLeft
          {
            OFFSET -5.016341 -17.535346 10.416931
            CHANNELS 3 Zrotation Xrotation Yrotation
            JOINT HandLeft
            {
              OFFSET -1.494403 -4.913320 3.119992
              CHANNELS 3 Zrotation Xrotation Yrotation
              JOINT HandTipLeft
              {
                OFFSET -0.146857 0.362960 0.354144
                CHANNELS 3 Zrotation Xrotation Yrotation
                End Site
                {
                  OFFSET 0 0 0
                }
              }
              JOINT ThumbLeft
              {
                OFFSET -0.007590 0.949267 -1.150766
                CHANNELS 3 Zrotation Xrotation Yrotation
                End Site
                {
                  OFFSET 0 0 0
                }
              }
            }
          }
        }
      }
      JOINT ShoulderRight
      {
        OFFSET 0.527867 -4.456192 -11.676456
        CHANNELS 3 Zrotation Xrotation Yrotation
        JOINT ElbowRight
        {
          OFFSET -1.336435 -21.075910 -6.545404
          CHANNELS 3 Zrotation Xrotation Yrotation
          JOINT WristRight
          {
            OFFSET -10.037886 -18.379258 5.409526
            CHANNELS 3 Zrotation Xrotation Yrotation
            JOINT HandRight
            {
              OFFSET -5.500656 -5.414364 5.984397
              CHANNELS 3 Zrotation Xrotation Yrotation
              JOINT HandTipRight
              {
                OFFSET -3.703262 -3.851195 2.119057
                CHANNELS 3 Zrotation Xrotation Yrotation
                End Site
                {
                  OFFSET 0 0 0
                }
              }
              JOINT ThumbRight
              {
                OFFSET 4.249632 -1.878282 -0.688683
                CHANNELS 3 Zrotation Xrotation Yrotation
                End Site
                {
                  OFFSET 0 0 0
                }
              }
            }
          }
        }
      }
    }
  }
  JOINT HipLeft
  {
    OFFSET -1.821052 0.711625 -1.360848
    CHANNELS 3 Zrotation Xrotation Yrotation
    JOINT KneeLeft
    {
      OFFSET 13.342831 -26.257736 5.217804
      CHANNELS 3 Zrotation Xrotation Yrotation
      JOINT AnkleLeft
      {
        OFFSET 6.118852 -33.360351 9.679541
        CHANNELS 3 Zrotation Xrotation Yrotation
        JOINT FootLeft
        {
          OFFSET -3.872897 -0.893091 -11.848079
          CHANNELS 3 Zrotation Xrotation Yrotation
          End Site
          {
            OFFSET 0 0 0
          }
        }
      }
    }
  }
  JOINT HipRight
  {
    OFFSET 1.734649 0.870067 -4.300115
    CHANNELS 3 Zrotation Xrotation Yrotation
    JOINT KneeRight
    {
      OFFSET 3.877534 -29.168763 1.041778
      CHANNELS 3 Zrotation Xrotation Yrotation
      JOINT AnkleRight
      {
        OFFSET 5.043008 -32.094834 1.557500
        CHANNELS 3 Zrotation Xrotation Yrotation
        JOINT FootRight
        {
          OFFSET -3.614271 -6.159185 -2.453676
          CHANNELS 3 Zrotation Xrotation Yrotation
          End Site
          {
            OFFSET 0 0 0
          }
        }
      }
    }
  }
}
MOTION
Frames: 6
Frame Time: 0.033333
-5.503751 67.880648 344.414544 4.032574 -4.824848 51.754987 -0.748926 0.129517 -51.512900 -0.352172 -0.179811 0.073567 -1.036987 4.146468 -0.920003 0.000000 0.000000 0.000000 -5.729349 -54.596764 96.658398 111.147594 40.573425 -160.705724 -1.570390 -1.625397 -5.651002 113.426129 -5.789305 -19.941295 0.000000 0.000000 0.000000 0.000000 0.000000 0.000000 28.034353 51.151818 -25.521601 16.429711 29.310880 -50.817017 -1.506674 -34.309788 -61.978300 -9.116647 -14.701243 8.739694 0.000000 0.000000 0.000000 0.000000 0.000000 0.000000 1.288772 6.152057 -51.654286 3.037830 9.850181 2.480529 -0.524793 -20.383346 -4.837801 0.000000 0.000000 0.000000 1.266419 14.551066 -51.190489 11.612888 -10.376275 -0.037785 -0.221607 2.261529 0.263744 0.000000 0.000000 0.000000
-5.434433 66.955902 344.154626 4.306597 -4.533597 51.285147 -0.947144 0.353177 -51.025950 -0.264667 -0.335876 0.077762 -0.471054 4.347388 -1.008345 0.000000 0.000000 0.000000 -4.645673 -55.741444 96.277062 115.419168 41.157276 -164.163680 -0.920485 -3.956760 -6.733626 113.158435 2.041449 -20.007344 0.000000 0.000000 0.000000 0.000000 0.000000 0.000000 24.868405 50.219599 -22.938603 12.202052 31.994976 -56.326209 -3.990891 -39.420035 -65.372543 -13.119388 -2.917612 13.347945 0.000000 0.000000 0.000000 0.000000 0.000000 0.000000 0.837670 6.193754 -51.159917 3.930466 7.960692 2.362253 -0.981654 -20.321632 -8.548512 0.000000 0.000000 0.000000 -0.282624 15.503539 -50.562642 12.996474 -10.413108 0.044737 4.522046 0.690069 -0.760814 0.000000 0.000000 0.000000
-5.146282 65.947333 343.526373 4.712169 -3.810166 44.499893 -1.352994 0.390079 -44.230711 -0.194685 -0.439393 0.087772 -0.940359 3.740822 -0.951647 0.000000 0.000000 0.000000 -4.397234 -56.836373 94.514409 117.949856 42.240827 -166.058230 -4.075912 -2.699194 -8.915201 116.095004 9.756085 -17.651024 0.000000 0.000000 0.000000 0.000000 0.000000 0.000000 18.397617 50.978933 -18.372339 7.821286 33.363761 -59.813137 -0.573731 -39.850500 -62.602305 -17.546016 5.311608 16.156391 0.000000 0.000000 0.000000 0.000000 0.000000 0.000000 -1.985980 5.632370 -44.898033 4.584249 7.302860 2.724443 -0.552749 -20.046476 -9.049554 0.000000 0.000000 0.000000 -3.800266 16.124875 -43.347209 14.406326 -10.854207 0.141474 15.221317 -6.900166 0.445063 0.000000 0.000000 0.000000
-4.754329 65.203519 342.897846 5.295549 -3.110810 36.750764 -1.685907 0.317081 -36.472689 -0.159218 -0.435822 0.108442 -2.469627 3.078115 -0.663389 0.000000 0.000000 0.000000 1.677148 -61.873027 97.156032 129.376729 41.931021 -174.136277 -3.558611 -2.784059 -8.887451 118.512324 8.721352 -18.033477 0.000000 0.000000 0.000000 0.000000 0.000000 0.000000 10.572179 52.741827 -13.174574 2.940480 33.292072 -61.973194 4.704475 -38.157689 -57.633286 -21.623688 11.829205 19.003132 0.000000 0.000000 0.000000 0.000000 0.000000 0.000000 -4.733690 3.827477 -37.899599 3.848718 9.470861 3.423564 1.149416 -23.040407 -5.075900 0.000000 0.000000 0.000000 -8.177832 16.910564 -34.975954 16.571788 -11.671360 0.345503 34.993857 -20.774699 8.267062 0.000000 0.000000 0.000000
-4.168711 64.994093 342.304336 6.028658 -2.548710 26.761159 -1.896797 0.094394 -26.473882 -0.180393 -0.342169 0.136898 -4.513221 2.679580 -0.247458 0.000000 0.000000 0.000000 3.728176 -64.063650 98.063925 128.728819 45.184128 -173.801266 -4.012733 -0.280378 -7.056595 116.061257 10.212457 -17.091137 0.000000 0.000000 0.000000 0.000000 0.000000 0.000000 -2.599248 56.152731 -4.264189 1.590740 30.481438 -61.944475 9.990118 -34.106606 -52.115947 -23.840693 12.211220 17.261970 0.000000 0.000000 0.000000 0.000000 0.000000 0.000000 -7.497778 0.316454 -29.295452 2.415630 13.439154 4.758516 2.854229 -24.854382 -0.270634 0.000000 0.000000 0.000000 -13.648752 16.804442 -24.237815 18.980790 -12.601661 0.631405 64.517329 -32.928099 27.401282 0.000000 0.000000 0.000000
-3.561305 65.557920 341.829540 6.774794 -2.203214 17.210860 -1.953821 -0.139499 -16.912269 -0.270058 -0.169418 0.163679 -6.878845 2.641971 0.302748 0.000000 0.000000 0.000000 4.214618 -65.239075 98.368036 132.284131 44.382955 -176.661492 -2.549613 -0.932773 -6.417531 115.927363 10.906451 -16.268082 0.000000 0.000000 0.000000 0.000000 0.000000 0.000000 -26.255406 58.739197 12.997364 3.029658 26.019109 -61.496450 18.084824 -23.359091 -44.210269 -22.809944 3.890710 9.998208 0.000000 0.000000 0.000000 0.000000 0.000000 0.000000 -9.801887 -4.356122 -21.799993 1.219268 19.269800 7.003422 3.606323 -26.896803 1.130975 0.000000 0.000000 0.000000 -18.225765 15.410364 -14.273154 20.354093 -13.467235 0.827725 68.982123 -33.395255 29.046977 0.000000 0.000000 0.000000
